<?xml version="1.0" encoding="UTF-8"?>
<svg version="1.1" xmlns="http://www.w3.org/2000/svg" width="1024" height="1024">
<path d="M0 0 C337.92 0 675.84 0 1024 0 C1024 337.92 1024 675.84 1024 1024 C686.08 1024 348.16 1024 0 1024 C0 686.08 0 348.16 0 0 Z " fill="#FDFDFD" transform="translate(0,0)"/>
<path d="M0 0 C1.38134373 0.26454373 2.76285395 0.52821962 4.14453125 0.79101562 C11.60058086 2.22294874 19.00680389 3.80752185 26.38427734 5.60668945 C28.91050894 6.14204532 31.3007508 6.42137305 33.875 6.5625 C40.54637503 7.21008769 45.98665815 10.72990996 50.75 15.3125 C55.25500002 20.80589494 57.13965401 27.68977451 59.4140625 34.31640625 C61.32806124 39.88629605 63.6571554 45.22420281 66.05859375 50.59765625 C67.125 53.1875 67.125 53.1875 67.125 55.1875 C86.54617853 54.81701334 105.96729241 54.44329504 125.38833714 54.06585789 C134.40835873 53.89063203 143.42839758 53.71641508 152.44848633 53.54467773 C160.32168403 53.39477386 168.19484034 53.24287063 176.06795543 53.08868736 C180.22642094 53.00731663 184.3848991 52.9268648 188.54342842 52.84881783 C209.76040914 52.46785906 209.76040914 52.46785906 230.96411133 51.65527344 C244.70187725 50.98600105 258.44382545 50.98373848 272.1953125 50.94921875 C273.59413544 50.94515462 274.99295822 50.94103733 276.39178085 50.93686867 C282.94256916 50.91799085 289.49334711 50.90369866 296.04415715 50.8952567 C303.55803403 50.88540342 311.07162274 50.85880441 318.58539784 50.81875581 C324.44152 50.78862453 330.29755881 50.77379266 336.15375698 50.77047569 C339.63406178 50.76813174 343.1140521 50.75924873 346.59427261 50.73401451 C350.45373272 50.706454 354.31280332 50.71055546 358.17236328 50.7175293 C359.3151474 50.70471924 360.45793152 50.69190918 361.63534546 50.67871094 C369.34899793 50.72969117 369.34899793 50.72969117 373.24703979 53.02937317 C376.43874917 56.69724303 377.56967044 59.00299959 377.44515991 63.91226196 C377.09382944 66.40901567 376.37386163 68.33983225 375.37744141 70.65380859 C372.86170582 76.73077485 370.78372598 82.92436916 368.7109375 89.1640625 C368.29929352 90.39631058 367.88764954 91.62855865 367.46353149 92.89814758 C366.36405294 96.19113893 365.26882113 99.4855264 364.17492676 102.78037643 C363.49750229 104.82002032 362.81896618 106.85929135 362.14013672 108.89846802 C355.19896848 129.75516654 348.29074498 150.62663923 342.08666992 171.71728516 C341.74224854 172.87405762 341.39782715 174.03083008 341.04296875 175.22265625 C340.7389917 176.25914307 340.43501465 177.29562988 340.12182617 178.36352539 C337.57450724 185.57999319 333.24629699 189.61643627 326.61274254 193.15556133 C322.52847897 194.84975172 318.73802945 194.87564854 314.36485291 194.81568909 C313.42359057 194.82278347 312.48232823 194.82987786 311.51254278 194.83718723 C308.38025226 194.85469239 305.24921493 194.83670026 302.11694336 194.81860352 C299.86260923 194.82374513 297.60827912 194.83102823 295.35395813 194.84028625 C289.24655879 194.85877618 283.13959688 194.84587688 277.03221583 194.82619596 C270.63512474 194.80979052 264.23806093 194.81862491 257.84095764 194.82371521 C247.10018226 194.8282337 236.35962348 194.81248549 225.61889648 194.78442383 C214.57943482 194.75558228 203.54022143 194.74850751 192.50073242 194.76391602 C179.17891005 194.7824848 165.8572676 194.78072798 152.53543282 194.76170158 C147.45386246 194.75483455 142.3723844 194.75586001 137.29081535 194.76324654 C131.30625527 194.77091463 125.32205225 194.75876555 119.33755302 194.73139763 C117.14300089 194.72451862 114.94841538 194.7244106 112.75386429 194.73161316 C109.75490056 194.74032076 106.75703549 194.72432896 103.75816345 194.7021637 C102.89268715 194.71040446 102.02721085 194.71864523 101.135508 194.72713572 C93.93135735 194.6290662 87.76607665 192.29011197 82.44921875 187.30078125 C77.73419338 182.25745238 76.03331225 175.81087407 73.9375 169.375 C73.4677743 167.98729112 72.99579498 166.60034332 72.52172852 165.21411133 C71.53247459 162.31496761 70.55307092 159.4127796 69.58105469 156.5078125 C67.5473247 150.44822387 65.41476392 144.42401799 63.27957153 138.39959717 C62.55223071 136.34600543 61.82748895 134.29151152 61.10327148 132.23681641 C56.453532 119.05617083 51.73193853 105.9013233 47 92.75 C46.61117645 91.66934265 46.22235291 90.5886853 45.82174683 89.47528076 C40.93730636 75.908426 36.0282133 62.35196551 30.94091797 48.85961914 C30.58916504 47.92239014 30.23741211 46.98516113 29.875 46.01953125 C29.58109375 45.24327393 29.2871875 44.4670166 28.984375 43.66723633 C27.90117723 40.54165685 27.01229055 37.37352491 26.125 34.1875 C25.10229004 34.00936768 24.07958008 33.83123535 23.02587891 33.64770508 C13.23771373 31.93640532 3.45204903 30.21133388 -6.29931641 28.30004883 C-7.78272291 28.01353776 -9.26783148 27.73571933 -10.75439453 27.46606445 C-26.32197573 24.63267682 -26.32197573 24.63267682 -31.875 18.1875 C-34.29342884 13.83525905 -34.58195635 10.10212423 -33.875 5.1875 C-26.90771609 -8.02631431 -12.16141016 -2.41094622 0 0 Z " fill="#AA9A20" transform="translate(317.875,315.8125)"/>
<path d="M0 0 C9.47292951 5.98655809 14.21402566 14.09103919 18.0625 24.5 C18.45134142 26.48995313 18.80283531 28.48910832 19.0625 30.5 C20.01125 30.17 20.96 29.84 21.9375 29.5 C27.59712989 27.90103952 33.4316561 27.54841817 39 29.5625 C44.07358077 34.32859103 45.10799962 41.98705544 46.90625 48.46484375 C48.12197769 52.78258989 49.49848483 57.04386253 50.875 61.3125 C54.30525496 72.00636953 57.27306893 82.82340375 60.25537109 93.64892578 C61.27945442 97.26636229 62.38869279 100.85484795 63.52270508 104.43920898 C64.0625 106.5 64.0625 106.5 64.0625 109.5 C41.92973163 110.70640759 19.78036607 110.81641266 -2.37890625 111.03222656 C-7.52867473 111.08319809 -12.67839693 111.13848196 -17.828125 111.19335938 C-27.86454346 111.29969745 -37.90100275 111.40139801 -47.9375 111.5 C-53.4968095 96.62237861 -53.4968095 96.62237861 -54.73828125 88.828125 C-54.86438278 88.09478943 -54.99048431 87.36145386 -55.1204071 86.605896 C-55.37908915 85.0848046 -55.63172414 83.56267192 -55.87817383 82.03955078 C-56.25233832 79.73560157 -56.64913398 77.43636232 -57.04882812 75.13671875 C-60.40407512 55.38077256 -60.40407512 55.38077256 -57.1875 49.0625 C-53.26354665 45.05916031 -47.2607993 44.36446741 -41.9375 43.5 C-40.9475 43.5 -39.9575 43.5 -38.9375 43.5 C-39.185 41.829375 -39.185 41.829375 -39.4375 40.125 C-40.99411343 27.31113876 -39.9041948 16.04950453 -31.9375 5.5 C-23.44044359 -3.55853591 -11.285411 -5.74416493 0 0 Z " fill="#E96C12" transform="translate(440.9375,245.5)"/>
<path d="M0 0 C80.52 0 161.04 0 244 0 C244 0.66 244 1.32 244 2 C242.4609375 3.47265625 242.4609375 3.47265625 240.375 5.0625 C239.70210937 5.58972656 239.02921875 6.11695313 238.3359375 6.66015625 C234.01677178 9.13753726 229.0750808 9.13251576 224.18359375 9.31640625 C223.08853516 9.35830078 221.99347656 9.40019531 220.86523438 9.44335938 C219.73408203 9.48267578 218.60292969 9.52199219 217.4375 9.5625 C215.78137695 9.62727539 215.78137695 9.62727539 214.09179688 9.69335938 C206.39167958 9.97655108 198.7048874 10.04997508 191 10 C190.96261719 10.91136719 190.92523437 11.82273437 190.88671875 12.76171875 C190.30051888 24.31330448 188.7309941 35.56038682 187 47 C200.2 47 213.4 47 227 47 C224.95159803 51.09680395 223.7432124 52.53288274 220 55 C215.45117258 56.01845223 210.97005185 56.15492211 206.32917786 56.1673584 C205.57635534 56.17315178 204.82353283 56.17894517 204.04789752 56.18491411 C201.53559986 56.20289265 199.02332441 56.21382131 196.51098633 56.22460938 C194.70531007 56.235792 192.89963583 56.24730555 191.09396362 56.25912476 C185.17334859 56.2955934 179.25271272 56.32088784 173.33203125 56.34375 C172.32326486 56.34769587 171.31449848 56.35164173 170.27516341 56.35570717 C160.75483741 56.39211573 151.23450383 56.42354342 141.71413136 56.44481659 C129.55637724 56.47238971 117.39920647 56.52317495 105.24169523 56.60529089 C96.68181877 56.6611418 88.12210035 56.6900609 79.56204814 56.6992898 C74.45469869 56.70553631 69.34803448 56.72356176 64.24088478 56.77067566 C59.43318994 56.81448079 54.62655189 56.82478804 49.81869125 56.81004715 C48.06073624 56.81037462 46.30273436 56.82255823 44.54496193 56.84789658 C34.02887123 56.99140685 26.2191485 56.4782004 18 49 C17.67 48.34 17.34 47.68 17 47 C30.53 47 44.06 47 58 47 C56.73877573 40.43344839 56.73877573 40.43344839 55.45727539 33.87084961 C53.97283039 25.92663841 53.41193859 18.06065485 53 10 C51.54932129 10.02356567 51.54932129 10.02356567 50.06933594 10.04760742 C46.42391547 10.10259239 42.77853027 10.13659475 39.1328125 10.16479492 C37.56569217 10.17972752 35.99861246 10.20008115 34.43164062 10.22631836 C22.11082853 10.42720117 9.73472391 10.62850528 0 2 C0 1.34 0 0.68 0 0 Z " fill="#FCFCF9" transform="translate(405,410)"/>
<path d="M0 0 C6.16279287 4.95702904 11.26085716 10.40930594 12.875 18.3125 C13.94862915 29.43395833 11.49821775 38.2868008 7.8125 48.5625 C7.33991413 49.93555134 6.86920566 51.30925032 6.40039062 52.68359375 C5.19459915 56.1913649 3.93518674 59.67710747 2.65579224 63.15863037 C1.86538825 65.33901469 1.11080894 67.52981369 0.35717773 69.72314453 C-3.82176664 81.53458512 -9.8701582 91.39412195 -16.9375 101.6875 C-18.51413332 104.01949784 -20.08585454 106.35473731 -21.65641785 108.69082642 C-22.62335814 110.12527899 -23.59472865 111.5567587 -24.57124329 112.98471069 C-25.22784187 113.94819931 -25.22784187 113.94819931 -25.89770508 114.93115234 C-26.28074295 115.48974945 -26.66378082 116.04834656 -27.0584259 116.62387085 C-28.20879741 118.44517035 -29.16162194 120.38574387 -30.125 122.3125 C-38.705 122.3125 -47.285 122.3125 -56.125 122.3125 C-56.145625 118.39375 -56.16625 114.475 -56.1875 110.4375 C-56.196604 109.22336426 -56.20570801 108.00922852 -56.21508789 106.75830078 C-56.21758545 105.76813965 -56.22008301 104.77797852 -56.22265625 103.7578125 C-56.22789307 102.76281738 -56.23312988 101.76782227 -56.23852539 100.74267578 C-56.14814039 98.01168826 -55.93928383 95.3873197 -55.64355469 92.67602539 C-55.02447414 86.80516016 -54.87235485 80.94960451 -54.73046875 75.05078125 C-54.66167094 72.69072987 -54.59198131 70.33070436 -54.52148438 67.97070312 C-54.41455632 64.30260578 -54.31272862 60.63470622 -54.22631836 56.96606445 C-53.30302812 18.74596331 -53.30302812 18.74596331 -39.78125 3.87890625 C-28.55075873 -6.74238384 -13.15799497 -7.10531728 0 0 Z " fill="#D56F20" transform="translate(611.125,231.6875)"/>
<path d="M0 0 C20 0 20 0 24.015625 3.4609375 C25.21289062 5.79248047 25.21289062 5.79248047 26.25 8.375 C27.15595136 10.20065977 28.0677366 12.02343258 28.984375 13.84375 C29.45294922 14.82988281 29.92152344 15.81601562 30.40429688 16.83203125 C33.07692646 22.13803515 36.26228081 27.12722479 39.42077637 32.15264893 C41.14251668 34.90040314 42.83374961 37.66691469 44.53125 40.4296875 C46.95044552 44.3383131 49.40770108 48.20413372 52 52 C56.24514071 46.24252791 60.02512083 40.35297049 63.5144043 34.10913086 C68.59356244 25.07858226 74.08795038 16.28931822 79.5012207 7.45678711 C81.01304719 4.97861316 82.50645813 2.48923646 84 0 C90.6 0 97.2 0 104 0 C104 30.36 104 60.72 104 92 C97.4 92 90.8 92 84 92 C83.67 73.85 83.34 55.7 83 37 C80.03 41.95 77.06 46.9 74 52 C71.737642 55.69329327 69.47058633 59.38217601 67.1875 63.0625 C66.64158203 63.94615234 66.09566406 64.82980469 65.53320312 65.74023438 C64.48853813 67.4266041 63.43306086 69.10634426 62.36474609 70.77783203 C60.99740255 72.91384064 60.99740255 72.91384064 60.07666016 74.95263672 C59.23828125 76.62109375 59.23828125 76.62109375 57 79 C53.40941871 80.10392191 50.5852925 80.13575311 47 79 C44.07643039 76.3116424 42.40853512 73.11091556 40.5625 69.625 C39.46512559 67.70426603 38.36746383 65.78369621 37.26953125 63.86328125 C36.72893066 62.88697754 36.18833008 61.91067383 35.63134766 60.90478516 C33.13484703 56.45950463 30.43950693 52.14264629 27.75 47.8125 C23.19831507 40.39663013 23.19831507 40.39663013 22 38 C21.67 56.15 21.34 74.3 21 93 C14.07 93 7.14 93 0 93 C0 62.31 0 31.62 0 0 Z " fill="#81BD2E" transform="translate(511,663)"/>
<path d="M0 0 C9.02154296 5.39015049 15.81994622 12.41748728 18.78515625 22.6640625 C20.83639904 34.69064369 18.74695944 44.66147171 11.78515625 54.6640625 C6.44825116 61.35267281 -1.02452444 64.65004956 -9.21484375 66.6640625 C-20.98582712 67.91629477 -30.41935924 66.30604975 -40.07421875 59.453125 C-46.73689113 53.88468713 -50.89966733 47.27248996 -52.21484375 38.6640625 C-52.73401829 31.16115297 -52.36792983 24.87869555 -50.21484375 17.6640625 C-51.62638985 17.67072433 -51.62638985 17.67072433 -53.06645203 17.67752075 C-61.93871421 17.71808015 -70.81095755 17.74805331 -79.68329144 17.76768684 C-84.24454808 17.77811998 -88.80572982 17.79227065 -93.36694336 17.81494141 C-97.76951139 17.83668648 -102.17200742 17.84863467 -106.57462502 17.85381699 C-108.25352932 17.85750975 -109.93242972 17.86472078 -111.61130333 17.87552261 C-113.96450668 17.89005968 -116.3174132 17.89203952 -118.6706543 17.89111328 C-119.70967392 17.90189911 -119.70967392 17.90189911 -120.76968384 17.91290283 C-124.68575758 17.89624531 -127.75208426 17.54491728 -131.21484375 15.6640625 C-132.95796166 13.36177746 -134.4395026 11.1912131 -135.90234375 8.7265625 C-136.29228516 8.09298828 -136.68222656 7.45941406 -137.08398438 6.80664062 C-138.13548826 5.09727276 -139.17571116 3.38097903 -140.21484375 1.6640625 C-140.87484375 0.6740625 -141.53484375 -0.3159375 -142.21484375 -1.3359375 C-141.63100544 -1.34016944 -141.04716713 -1.34440138 -140.44563675 -1.34876156 C-126.24065583 -1.45205874 -112.03572414 -1.56069513 -97.83082962 -1.67527676 C-90.96145567 -1.73055871 -84.09207653 -1.78403242 -77.22265625 -1.83325195 C-70.59609972 -1.88073644 -63.96959555 -1.93325646 -57.3431015 -1.98887825 C-54.8121139 -2.00929395 -52.28111201 -2.02800833 -49.75009918 -2.04501152 C-46.21127645 -2.06907273 -42.67255239 -2.09912525 -39.13378906 -2.13061523 C-37.55638443 -2.13924843 -37.55638443 -2.13924843 -35.94711304 -2.14805603 C-34.98240082 -2.15784485 -34.0176886 -2.16763367 -33.02374268 -2.17771912 C-32.18675465 -2.18417167 -31.34976662 -2.19062422 -30.48741531 -2.1972723 C-7.47451265 -3.60144755 -7.47451265 -3.60144755 0 0 Z " fill="#1562A7" transform="translate(621.21484375,526.3359375)"/>
<path d="M0 0 C6.27 0 12.54 0 19 0 C19 30.69 19 61.38 19 93 C12.4 93 5.8 93 -1 93 C-1.33 74.52 -1.66 56.04 -2 37 C-7.75070198 46.83691347 -7.75070198 46.83691347 -13.49560547 56.67720032 C-14.20262698 57.88057833 -14.9157625 59.08037464 -15.63330078 60.2775116 C-17.51813125 63.42658494 -19.31457413 66.57698793 -20.9609375 69.85791016 C-25.36546038 78.33819941 -25.36546038 78.33819941 -29.73876953 80.10888672 C-32.94661321 80.38220561 -35.00121373 80.17120227 -38 79 C-40.79491756 76.52417521 -42.2435665 73.63773066 -43.875 70.3125 C-49.79722729 59.17834372 -56.29759405 48.82696345 -63 38 C-63.33 55.82 -63.66 73.64 -64 92 C-70.6 92 -77.2 92 -84 92 C-84 61.97 -84 31.94 -84 1 C-77.4 1 -70.8 1 -64 1 C-58.80699047 7.3700917 -58.80699047 7.3700917 -57.41015625 10.83203125 C-54.64406572 17.07252409 -50.9946563 22.77270682 -47.40805054 28.56237793 C-45.90678672 30.99323291 -44.42586999 33.43613028 -42.94587708 35.87997437 C-41.91830687 37.57541988 -40.88597566 39.26797698 -39.85351562 40.96044922 C-38.71121743 42.83368586 -37.57349243 44.70973107 -36.44335938 46.59033203 C-34.33892371 50.40896378 -34.33892371 50.40896378 -31 53 C-30.87197998 52.40807861 -30.74395996 51.81615723 -30.61206055 51.20629883 C-29.64315019 47.71366104 -27.66888725 44.77040303 -25.8125 41.6875 C-25.37905273 40.95982422 -24.94560547 40.23214844 -24.49902344 39.48242188 C-23.00640494 36.98397614 -21.50409884 34.49155051 -20 32 C-19.13544189 30.56454834 -19.13544189 30.56454834 -18.25341797 29.10009766 C-16.42291006 26.06431301 -14.58765715 23.03146184 -12.75 20 C-12.1722583 19.04569092 -11.5945166 18.09138184 -10.99926758 17.1081543 C-9.87827486 15.2672698 -8.73631462 13.43896536 -7.57226562 11.625 C-5.94305398 9.05816233 -5.94305398 9.05816233 -4.91210938 6.3125 C-3.765625 3.8125 -3.765625 3.8125 0 0 Z " fill="#EC6C16" transform="translate(307,663)"/>
<path d="M0 0 C1.14984375 -0.00386719 2.2996875 -0.00773438 3.484375 -0.01171875 C4.68578125 -0.00011719 5.8871875 0.01148438 7.125 0.0234375 C8.32640625 0.01183594 9.5278125 0.00023437 10.765625 -0.01171875 C12.49039063 -0.00591797 12.49039063 -0.00591797 14.25 0 C15.30445313 0.00338379 16.35890625 0.00676758 17.4453125 0.01025391 C20.125 0.3984375 20.125 0.3984375 21.97387695 1.78198242 C23.53267223 3.97090788 23.42802013 5.42897456 23.3125 8.0859375 C23.27189453 9.29830078 23.27189453 9.29830078 23.23046875 10.53515625 C23.17826172 11.45748047 23.17826172 11.45748047 23.125 12.3984375 C21.145 13.3884375 21.145 13.3884375 19.125 14.3984375 C19.39268245 23.41933592 19.90960677 28.74898398 26.09765625 35.57421875 C26.80792969 36.36183594 27.51820313 37.14945312 28.25 37.9609375 C28.93320312 38.68410156 29.61640625 39.40726562 30.3203125 40.15234375 C33.41972663 44.00983969 34.38679555 47.51097072 34.27612305 52.41308594 C34.25917892 53.38469666 34.2422348 54.35630737 34.22477722 55.35736084 C34.19571793 56.39700989 34.16665863 57.43665894 34.13671875 58.5078125 C34.11406448 59.58919495 34.09141022 60.67057739 34.06806946 61.784729 C34.01816608 64.07111719 33.96321026 66.35739991 33.90356445 68.64355469 C33.8131977 72.12158449 33.73821637 75.59967545 33.66601562 79.078125 C33.61549161 81.3047083 33.56408764 83.53127183 33.51171875 85.7578125 C33.48873215 86.78936462 33.46574554 87.82091675 33.44206238 88.88372803 C33.28394876 94.77823277 32.86299057 100.54752405 32.125 106.3984375 C27.175 106.8934375 27.175 106.8934375 22.125 107.3984375 C22.125 108.3884375 22.125 109.3784375 22.125 110.3984375 C27.075 109.9034375 27.075 109.9034375 32.125 109.3984375 C32.125 113.3584375 32.125 117.3184375 32.125 121.3984375 C23.215 121.3984375 14.305 121.3984375 5.125 121.3984375 C4.63 116.4484375 4.63 116.4484375 4.125 111.3984375 C9.405 111.3984375 14.685 111.3984375 20.125 111.3984375 C20.125 110.0784375 20.125 108.7584375 20.125 107.3984375 C14.515 107.3984375 8.905 107.3984375 3.125 107.3984375 C1.21170477 102.93408197 -0.33286993 99.2066544 -1.55859375 94.6328125 C-1.84669922 93.57707031 -2.13480469 92.52132812 -2.43164062 91.43359375 C-2.72232422 90.34949219 -3.01300781 89.26539063 -3.3125 88.1484375 C-5.24053566 80.96487992 -7.33451756 73.96311981 -9.94458008 66.99707031 C-11.64138113 62.25795973 -12.8521459 57.39144567 -14.1171875 52.5234375 C-14.31828125 51.770625 -14.519375 51.0178125 -14.7265625 50.2421875 C-14.90010254 49.57380859 -15.07364258 48.90542969 -15.25244141 48.21679688 C-15.89196157 46.09644125 -15.89196157 46.09644125 -17.875 43.3984375 C-17.73384954 39.16392364 -14.78195337 37.17619294 -11.875 34.3984375 C-11.32585937 33.91890625 -10.77671875 33.439375 -10.2109375 32.9453125 C-6.39169288 29.2165713 -5.44215691 26.52271646 -5.3125 21.1484375 C-5.26856411 17.06500411 -5.26856411 17.06500411 -7.38671875 13.8203125 C-7.87785156 13.35109375 -8.36898438 12.881875 -8.875 12.3984375 C-9.2734375 10.2421875 -9.2734375 10.2421875 -9.25 7.8984375 C-9.25773437 7.125 -9.26546875 6.3515625 -9.2734375 5.5546875 C-8.29924391 0.282581 -4.77961398 0.015338 0 0 Z " fill="#212B6F" transform="translate(511.875,232.6015625)"/>
<path d="M0 0 C9.67314468 5.48144865 19.16474838 14.86924514 22.75 25.625 C23.74665496 34.67658765 21.49304532 41.46527313 15.875 48.5625 C11.50596371 53.31311151 6.16233109 56.80721646 0.859375 60.42578125 C-2.13267285 62.33365314 -2.13267285 62.33365314 -3.56733704 64.24116516 C-6.07682274 66.30498532 -8.07126522 65.985114 -11.28198242 65.96557617 C-13.14357246 65.96523628 -13.14357246 65.96523628 -15.04277039 65.96488953 C-16.39700684 65.94956968 -17.75123961 65.9339217 -19.10546875 65.91796875 C-20.4912317 65.91237251 -21.87700059 65.90810254 -23.26277161 65.90510559 C-26.90762764 65.89365883 -30.55212423 65.86419358 -34.19683838 65.83099365 C-37.91698342 65.80028885 -41.63718661 65.78659941 -45.35742188 65.77148438 C-52.65511167 65.73932331 -59.95250544 65.68812951 -67.25 65.625 C-66.50808111 61.36246336 -65.25713057 58.72155766 -62.8203125 55.1171875 C-62.11245605 54.05693359 -61.40459961 52.99667969 -60.67529297 51.90429688 C-60.29967224 51.34863037 -59.92405151 50.79296387 -59.53704834 50.22045898 C-57.57340268 47.31320314 -55.63629019 44.38852299 -53.703125 41.4609375 C-53.31788666 40.87773743 -52.93264832 40.29453735 -52.53573608 39.69366455 C-49.20025108 34.61230127 -46.11539014 29.41473508 -43.125 24.125 C-33.43425332 7.08283685 -22.23702491 -10.23883767 0 0 Z " fill="#E15315" transform="translate(660.25,287.375)"/>
<path d="M0 0 C6.03991657 0.00433457 12.07981219 0.00124293 18.11972743 -0.00362772 C24.06742172 -0.00822353 30.01510721 -0.00877923 35.96280271 -0.00618905 C39.46413956 -0.00466506 42.96546252 -0.00432161 46.46679837 -0.00772554 C71.62535811 -0.02449563 96.70733932 0.44684826 121.76722103 2.80313033 C124.67175379 3.07432077 127.57754541 3.32743399 130.48377377 3.57974166 C132.35170786 3.7499201 134.21955093 3.92110129 136.08728939 4.09341353 C137.37597676 4.20446677 137.37597676 4.20446677 138.69069821 4.31776351 C142.5020967 4.68768172 144.7817014 4.96911529 148.02088314 7.12856978 C147.69088314 8.11856978 147.36088314 9.10856978 147.02088314 10.12856978 C133.86901229 12.69923414 120.84020789 13.87649422 107.46643978 14.58169478 C104.25021868 14.7513628 101.03502195 14.93470486 97.81971127 15.12075728 C91.22180748 15.49490619 84.62225851 15.82220528 78.02088314 16.12856978 C76.94726528 16.17909499 75.87364743 16.2296202 74.76749569 16.28167647 C51.21406637 17.34845532 27.6557413 17.32821407 4.08338314 17.31606978 C3.0557322 17.31595019 2.02808125 17.3158306 0.96928936 17.31570739 C-125.20380818 17.29715475 -125.20380818 17.29715475 -146.97911686 9.12856978 C-146.64911686 8.13856978 -146.31911686 7.14856978 -145.97911686 6.12856978 C-126.85242709 0.27088982 -103.87910367 1.00777536 -83.96739811 0.54653853 C-83.15728527 0.52669528 -82.34717243 0.50685202 -81.51251072 0.48640746 C-54.34913966 -0.15842856 -27.16933127 -0.02176438 0 0 Z " fill="#D5D4D4" transform="translate(518.9791168570518,597.8714302182198)"/>
<path d="M0 0 C9.01441337 5.38589074 15.81009136 12.42565561 18.78515625 22.6640625 C20.40481604 33.40209541 19.22357286 43.95309123 13.16015625 53.12109375 C7.56879072 60.1452467 0.2005303 63.85893782 -8.21484375 66.6640625 C-20.71450123 67.53846514 -30.78236171 66.80856664 -40.65234375 58.2890625 C-48.95651252 50.26126068 -52.04876065 42.56713857 -52.58984375 31.0390625 C-52.46504792 20.96803907 -48.30078798 12.76324404 -41.39453125 5.5703125 C-29.86227413 -4.5152457 -13.81942266 -6.65861819 0 0 Z " fill="#235FA3" transform="translate(458.21484375,526.3359375)"/>
<path d="M0 0 C4.58867147 11.7775901 8.33837501 23.57462241 11.5078125 35.8125 C11.77464844 36.84173584 12.04148437 37.87097168 12.31640625 38.93139648 C12.8466173 40.98452349 13.3728028 43.03869521 13.89453125 45.09399414 C14.13816406 46.04395264 14.38179688 46.99391113 14.6328125 47.97265625 C14.84824707 48.82093994 15.06368164 49.66922363 15.28564453 50.54321289 C15.96940103 53.0607539 15.96940103 53.0607539 17.08544922 55.62670898 C18 58 18 58 18 61 C-4.13276837 62.20640759 -26.28213393 62.31641266 -48.44140625 62.53222656 C-53.59117473 62.58319809 -58.74089693 62.63848196 -63.890625 62.69335938 C-73.92704346 62.79969745 -83.96350275 62.90139801 -94 63 C-94.81690177 60.77236012 -95.62861872 58.5430514 -96.4375 56.3125 C-96.66759766 55.68666016 -96.89769531 55.06082031 -97.13476562 54.41601562 C-99.14642077 48.84752095 -100.13367098 44.09469131 -100.0625 38.1875 C-100.05347656 37.21167969 -100.04445313 36.23585938 -100.03515625 35.23046875 C-100.02355469 34.49441406 -100.01195312 33.75835937 -100 33 C-96.86142574 33.57213593 -93.98185804 34.31347929 -91 35.4375 C-74.34399036 41.06303968 -54.20430447 41.08171145 -38.14038086 33.48071289 C-32.11602113 30.45445178 -27.09436163 27.14422738 -22.375 22.3125 C-20 20 -20 20 -17 19 C-17 18.34 -17 17.68 -17 17 C-16.34 17 -15.68 17 -15 17 C-14.75121094 16.44441406 -14.50242187 15.88882812 -14.24609375 15.31640625 C-12.77904015 12.58925018 -11.01113998 10.34336277 -9.0625 7.9375 C-8.37285156 7.08027344 -7.68320312 6.22304688 -6.97265625 5.33984375 C-2.47078464 0 -2.47078464 0 0 0 Z " fill="#CD2114" transform="translate(487,294)"/>
<path d="M0 0 C6.53397308 5.35534046 8.90819383 11.72303547 10.23046875 19.828125 C10.47463461 23.33417139 10.46537164 26.81889574 10.42578125 30.33203125 C10.42295135 31.2959227 10.42012146 32.25981415 10.41720581 33.25291443 C10.40610723 36.29895006 10.38102239 39.34467986 10.35546875 42.390625 C10.34542559 44.46939676 10.33630209 46.54817318 10.328125 48.62695312 C10.30791253 53.69421994 10.26874455 58.76083451 10.23046875 63.828125 C3.63046875 63.828125 -2.96953125 63.828125 -9.76953125 63.828125 C-10.26453125 60.363125 -10.26453125 60.363125 -10.76953125 56.828125 C-11.61515625 57.59125 -12.46078125 58.354375 -13.33203125 59.140625 C-20.96363746 65.34460973 -28.10725275 65.76422548 -37.76953125 64.828125 C-45.48809489 63.16518243 -50.41781512 59.36204281 -54.76953125 52.828125 C-57.42215373 47.17688581 -57.5200248 42.11910532 -55.58203125 36.203125 C-52.44757515 30.36655158 -47.94941877 26.31028173 -41.76953125 23.828125 C-35.0274745 22.47356821 -28.04885768 22.70676084 -21.20703125 22.765625 C-19.69399414 22.77239258 -19.69399414 22.77239258 -18.15039062 22.77929688 C-15.69003978 22.79095731 -13.22981886 22.80732122 -10.76953125 22.828125 C-13.00270926 16.69077842 -13.00270926 16.69077842 -17.125 11.7890625 C-24.98875495 8.93162717 -33.38384703 10.39905733 -40.76953125 13.828125 C-42.43321408 14.50220339 -44.09933797 15.1703434 -45.76953125 15.828125 C-47.10851524 13.87344748 -48.44082172 11.9147671 -49.76953125 9.953125 C-50.51203125 8.86257813 -51.25453125 7.77203125 -52.01953125 6.6484375 C-53.76953125 3.828125 -53.76953125 3.828125 -53.76953125 1.828125 C-37.19099296 -7.09606689 -16.76847695 -10.9834857 0 0 Z " fill="#47A640" transform="translate(686.76953125,692.171875)"/>
<path d="M0 0 C6.50043109 4.34484773 10.52470047 9.57410141 13 17 C13.08722452 18.61095858 13.11767272 20.22531016 13.11352539 21.83862305 C13.11341209 23.30980843 13.11341209 23.30980843 13.11329651 24.81071472 C13.10813522 25.86704605 13.10297394 26.92337738 13.09765625 28.01171875 C13.0962413 29.09508011 13.09482635 30.17844147 13.09336853 31.29463196 C13.08776559 34.75894925 13.07521258 38.2232022 13.0625 41.6875 C13.05748538 44.03450428 13.05292241 46.38150956 13.04882812 48.72851562 C13.0377952 54.48570192 13.02052858 60.24284005 13 66 C6.4 66 -0.2 66 -7 66 C-7.03738281 63.19371094 -7.07476562 60.38742187 -7.11328125 57.49609375 C-7.15956291 54.76221153 -7.21077237 52.02846263 -7.26245117 49.29467773 C-7.29559607 47.40250833 -7.32366017 45.51024254 -7.34643555 43.61791992 C-7.38017421 40.88939546 -7.43249865 38.161746 -7.48828125 35.43359375 C-7.49467117 34.59477158 -7.5010611 33.7559494 -7.50764465 32.89170837 C-7.63984664 27.54662515 -8.4981522 23.7493417 -11 19 C-14.07693583 16.10954513 -16.85287813 15.75875811 -20.9375 15.5625 C-25.67652795 15.71764675 -28.40843289 16.75882968 -32 20 C-35.68028984 24.6107095 -35.47131999 29.03068286 -35.51171875 34.67578125 C-35.52966995 35.6009404 -35.54762115 36.52609955 -35.56611633 37.47929382 C-35.62014079 40.42365003 -35.65408991 43.36784484 -35.6875 46.3125 C-35.72068001 48.31317346 -35.7551703 50.31382565 -35.79101562 52.31445312 C-35.87832122 57.20965764 -35.93845681 62.10413297 -36 67 C-42.93 67 -49.86 67 -57 67 C-57 44.23 -57 21.46 -57 -2 C-50.4 -2 -43.8 -2 -37 -2 C-36.67 0.31 -36.34 2.62 -36 5 C-35.41992188 4.59007812 -34.83984375 4.18015625 -34.2421875 3.7578125 C-23.52157315 -3.63693469 -12.22325629 -5.73661945 0 0 Z " fill="#E66518" transform="translate(441,689)"/>
<path d="M0 0 C3.33761045 2.15090451 4.73470933 3.20412799 6 7 C6.79386789 14.40943362 4.36242161 19.46729516 1 26 C1.99580078 25.47599609 1.99580078 25.47599609 3.01171875 24.94140625 C3.89472656 24.48636719 4.77773438 24.03132813 5.6875 23.5625 C6.55761719 23.11003906 7.42773438 22.65757812 8.32421875 22.19140625 C14.26828793 19.54477691 20.58578914 19.44140506 27 20 C30.11937969 21.37252707 31.4897715 21.979543 33 25 C33.56518947 31.8953115 33.56518947 31.8953115 31.625 35.6875 C25.21017029 41.3386595 17.14774211 43.86771855 9 46 C10.04800781 46.47179687 10.04800781 46.47179687 11.1171875 46.953125 C12.02726563 47.38109375 12.93734375 47.8090625 13.875 48.25 C15.23238281 48.87648438 15.23238281 48.87648438 16.6171875 49.515625 C19.24053264 51.14984 20.02909606 52.10412466 21 55 C20.92071401 58.80572745 20.4474895 60.48470906 17.9375 63.375 C11.27518905 67.06053372 3.22767189 64.51624227 -3.70385742 62.54199219 C-10.02802004 60.47274216 -13.0592061 57.32515041 -16.8125 51.8125 C-19.31437799 48.59579973 -21.88422183 46.92563807 -25.3125 44.75 C-31.59776453 40.30627794 -33.0955323 35.76994266 -34.515625 28.5390625 C-34.67546875 27.37117188 -34.8353125 26.20328125 -35 25 C-35.11859375 24.14148438 -35.2371875 23.28296875 -35.359375 22.3984375 C-35.58026118 19.12195915 -35.16825807 17.25885857 -33.375 14.5 C-30.23686002 12.51801686 -28.65126535 12.32935942 -25 13 C-21.89835231 15.55024365 -20.27433584 17.17699247 -19 21 C-18.75765625 20.27554687 -18.5153125 19.55109375 -18.265625 18.8046875 C-11.10504202 -1.85084034 -11.10504202 -1.85084034 0 0 Z " fill="#98B819" transform="translate(692,243)"/>
<path d="M0 0 C6.6 0 13.2 0 20 0 C20 5.61 20 11.22 20 17 C26.27 17 32.54 17 39 17 C39 22.28 39 27.56 39 33 C32.73 33 26.46 33 20 33 C20.07427324 37.02099937 20.15733911 41.04037057 20.26245117 45.06054688 C20.29555386 46.4259925 20.32363086 47.79157013 20.34643555 49.15722656 C20.38024991 51.12853224 20.43408286 53.09946191 20.48828125 55.0703125 C20.51446533 56.25383301 20.54064941 57.43735352 20.56762695 58.65673828 C21.0411289 62.31802325 22.17766154 64.81355953 24 68 C28.29 68 32.58 68 37 68 C39.53634391 72.74541763 41.45734262 76.57342622 42 82 C33.31669992 85.99431804 24.46896913 87.49322095 15.08203125 84.80859375 C9.39985912 82.60182146 4.7641382 79.86263295 1.75 74.4453125 C-1.3608862 66.92018606 -0.41510503 58.42095124 -0.25 50.4375 C-0.22990488 48.74416174 -0.21165943 47.05080047 -0.1953125 45.35742188 C-0.15155338 41.23770628 -0.0826939 37.11911049 0 33 C-3.63 33 -7.26 33 -11 33 C-11 27.72 -11 22.44 -11 17 C-7.37 17 -3.74 17 0 17 C0 11.39 0 5.78 0 0 Z " fill="#41A23E" transform="translate(775,671)"/>
<path d="M0 0 C6.6 0 13.2 0 20 0 C20.33 2.31 20.66 4.62 21 7 C21.62648438 6.57847656 22.25296875 6.15695312 22.8984375 5.72265625 C23.71570313 5.17480469 24.53296875 4.62695312 25.375 4.0625 C26.18710937 3.51722656 26.99921875 2.97195313 27.8359375 2.41015625 C31.53732232 -0.00175696 33.69909915 -0.10958405 38.125 -0.0625 C41.033125 -0.0315625 41.033125 -0.0315625 44 0 C44 5.61 44 11.22 44 17 C41.97875 17.2475 39.9575 17.495 37.875 17.75 C30.75815828 18.87120955 30.75815828 18.87120955 25 23 C22.3555327 28.85688998 21.5398916 33.71375095 21.48828125 40.09375 C21.47033005 40.92588013 21.45237885 41.75801025 21.43388367 42.61535645 C21.38019373 45.24352114 21.34601929 47.87150865 21.3125 50.5 C21.27929031 52.29429528 21.24479733 54.08856729 21.20898438 55.8828125 C21.12210181 60.25522797 21.06168328 64.62686793 21 69 C14.07 69 7.14 69 0 69 C0 46.23 0 23.46 0 0 Z " fill="#40A23F" transform="translate(714,687)"/>
<path d="M0 0 C6.93 0 13.86 0 21 0 C20.67 1.32 20.34 2.64 20 4 C19.34 4 18.68 4 18 4 C18.31566569 11.41814367 20.00908669 17.24699712 23 24 C23.75819882 25.82995783 24.50843412 27.66323895 25.25 29.5 C25.58515625 30.3146875 25.9203125 31.129375 26.265625 31.96875 C27 34 27 34 27 36 C27.66 36 28.32 36 29 36 C30.52837324 40.80345877 30.01012095 44.31271038 28.3125 49.0625 C25.4466298 54.53995455 22.25608746 56.13763862 16.61791992 57.97436523 C11.03917766 59.55190543 5.82122924 61 0 61 C-0.33 61.99 -0.66 62.98 -1 64 C-4.10420183 55.04404749 -6.90565876 46.07742999 -9.29956055 36.90478516 C-10.20659332 33.50369513 -11.02992022 30.95511967 -13 28 C-12.85884954 23.76548614 -9.90695337 21.77775544 -7 19 C-6.19369141 18.28070313 -6.19369141 18.28070313 -5.37109375 17.546875 C-0.0455197 12.25979907 -0.16505157 7.34479476 0 0 Z " fill="#267CB7" transform="translate(507,248)"/>
<path d="M0 0 C15.18 0 30.36 0 46 0 C46 11.88 46 23.76 46 36 C32.14 36 18.28 36 4 36 C3.34 31.545 2.68 27.09 2 22.5 C1.79117187 21.11103516 1.58234375 19.72207031 1.3671875 18.29101562 C1.20476562 17.17404297 1.04234375 16.05707031 0.875 14.90625 C0.70742188 13.77509766 0.53984375 12.64394531 0.3671875 11.47851562 C-0.03467204 7.67153771 0 3.82812904 0 0 Z " fill="#C39117" transform="translate(474,420)"/>
<path d="M0 0 C14.85 0 29.7 0 45 0 C45 11.25 45 11.25 44.34375 16.6640625 C44.22193359 17.6948291 44.10011719 18.7255957 43.97460938 19.78759766 C43.81798828 21.05394043 43.66136719 22.3202832 43.5 23.625 C43.005 27.70875 42.51 31.7925 42 36 C28.14 36 14.28 36 0 36 C0 24.12 0 12.24 0 0 Z " fill="#89A424" transform="translate(535,420)"/>
<path d="M0 0 C6.93 0 13.86 0 21 0 C21 22.44 21 44.88 21 68 C14.07 68 7.14 68 0 68 C0 45.56 0 23.12 0 0 Z " fill="#E4641A" transform="translate(472,688)"/>
<path d="M0 0 C6.93 0 13.86 0 21 0 C21 22.44 21 44.88 21 68 C14.07 68 7.14 68 0 68 C0 45.56 0 23.12 0 0 Z " fill="#E76419" transform="translate(345,687)"/>
<path d="M0 0 C6.73200801 4.6358139 11.32290481 12.40621443 13.875 20.0625 C13.91599097 21.72866251 13.92308411 23.3965271 13.875 25.0625 C9.98477546 26.03012519 6.0927164 26.98998375 2.19897461 27.94335938 C0.24041531 28.42450078 -1.71672914 28.91139011 -3.67382812 29.3984375 C-11.78448564 31.37966682 -19.84979999 32.94955877 -28.125 34.0625 C-30.39107293 25.69958464 -30.48463349 15.65744015 -26.3203125 7.92578125 C-25.92585938 7.31089844 -25.53140625 6.69601562 -25.125 6.0625 C-24.75117188 5.47855469 -24.37734375 4.89460938 -23.9921875 4.29296875 C-17.87601072 -4.0307023 -8.56241156 -4.65384458 0 0 Z " fill="#FDFBF9" transform="translate(438.125,252.9375)"/>
<path d="M0 0 C13.02397697 8.23069512 17.63886415 21.68444389 21.30078125 35.9921875 C22.06420083 39.50783256 22.75845388 42.91313704 23.0625 46.5 C21.0625 48.5 21.0625 48.5 18.5625 48.8125 C17.7375 48.709375 16.9125 48.60625 16.0625 48.5 C13.76072082 45.04733123 13.43557099 42.6380723 12.75 38.5625 C10.64393662 27.24719585 6.81315971 14.95577164 -3.03515625 8.0234375 C-8.62602046 5.12447087 -13.89308039 4.74948666 -19.9375 6.5 C-26.18978526 10.32084099 -28.69664036 15.77742109 -30.9375 22.5 C-31.49612613 32.86706161 -30.4045758 42.59932575 -28.51171875 52.79296875 C-28.1875 54.6875 -28.1875 54.6875 -27.9375 57.5 C-28.5975 58.16 -29.2575 58.82 -29.9375 59.5 C-33.23464793 59.17028521 -34.5601839 58.8773161 -36.9375 56.5 C-37.43994141 54.50390625 -37.43994141 54.50390625 -37.7890625 52.0625 C-37.91796875 51.16660156 -38.046875 50.27070313 -38.1796875 49.34765625 C-38.30601562 48.40792969 -38.43234375 47.46820313 -38.5625 46.5 C-38.6965625 45.59121094 -38.830625 44.68242187 -38.96875 43.74609375 C-40.92285801 29.72835976 -40.76793287 17.19326727 -31.9375 5.5 C-23.44044359 -3.55853591 -11.285411 -5.74416493 0 0 Z " fill="#DE5117" transform="translate(440.9375,245.5)"/>
<path d="M0 0 C1.14984375 -0.00386719 2.2996875 -0.00773438 3.484375 -0.01171875 C4.68578125 -0.00011719 5.8871875 0.01148438 7.125 0.0234375 C8.32640625 0.01183594 9.5278125 0.00023437 10.765625 -0.01171875 C12.49039063 -0.00591797 12.49039063 -0.00591797 14.25 0 C15.83167969 0.00507568 15.83167969 0.00507568 17.4453125 0.01025391 C20.125 0.3984375 20.125 0.3984375 21.97387695 1.78198242 C23.53267223 3.97090788 23.42802013 5.42897456 23.3125 8.0859375 C23.27189453 9.29830078 23.27189453 9.29830078 23.23046875 10.53515625 C23.17826172 11.45748047 23.17826172 11.45748047 23.125 12.3984375 C21.145 13.3884375 21.145 13.3884375 19.125 14.3984375 C19.39268245 23.41933592 19.90960677 28.74898398 26.09765625 35.57421875 C26.80792969 36.36183594 27.51820313 37.14945312 28.25 37.9609375 C28.93320312 38.68410156 29.61640625 39.40726562 30.3203125 40.15234375 C33.46561601 44.0669531 34.38607672 47.58590702 34.26025391 52.5559082 C34.24008209 53.55656815 34.21991028 54.55722809 34.1991272 55.58821106 C34.15083267 57.19003487 34.15083267 57.19003487 34.1015625 58.82421875 C34.06402359 60.47831001 34.06402359 60.47831001 34.02572632 62.16581726 C33.94368231 65.68117725 33.84703109 69.19596238 33.75 72.7109375 C33.69174459 75.09698187 33.63444166 77.48304971 33.578125 79.86914062 C33.43812663 85.7125566 33.28613973 91.55556837 33.125 97.3984375 C32.795 97.3984375 32.465 97.3984375 32.125 97.3984375 C31.95431136 93.00275095 31.78920951 88.60687049 31.625 84.2109375 C31.57730469 82.98439453 31.52960937 81.75785156 31.48046875 80.49414062 C31.18361406 72.45785999 31.0641496 64.43998648 31.125 56.3984375 C27.50494994 58.45524261 25.57697696 59.64310338 23.9375 63.5234375 C22.30936406 67.30625547 22.30936406 67.30625547 20.125 68.3984375 C22.125 63.3984375 22.125 63.3984375 23.25 61.0234375 C24.34723521 57.73173186 24.26012942 54.84423773 24.125 51.3984375 C23.465 51.3984375 22.805 51.3984375 22.125 51.3984375 C20.99968576 48.66940003 19.874738 45.94021245 18.75 43.2109375 C18.43289063 42.44201172 18.11578125 41.67308594 17.7890625 40.88085938 C17.17193156 39.38303117 16.5574389 37.88411278 15.94580078 36.3840332 C15.29286594 34.8045213 14.60538647 33.23929962 13.90625 31.6796875 C12.99701619 29.02472477 12.92539657 26.8835663 13 24.0859375 C13.01804687 23.20292969 13.03609375 22.31992188 13.0546875 21.41015625 C13.07789063 20.74628906 13.10109375 20.08242187 13.125 19.3984375 C13.785 19.3984375 14.445 19.3984375 15.125 19.3984375 C15.455 18.0784375 15.785 16.7584375 16.125 15.3984375 C15.14889771 15.42200317 15.14889771 15.42200317 14.15307617 15.44604492 C11.20630576 15.50838399 8.25967402 15.54742434 5.3125 15.5859375 C3.77625977 15.62364258 3.77625977 15.62364258 2.20898438 15.66210938 C0.73461914 15.67661133 0.73461914 15.67661133 -0.76953125 15.69140625 C-1.67550049 15.7071167 -2.58146973 15.72282715 -3.51489258 15.73901367 C-5.875 15.3984375 -5.875 15.3984375 -7.66918945 14.01489258 C-9.25497858 11.8890554 -9.27631561 10.52999861 -9.25 7.8984375 C-9.25773437 7.125 -9.26546875 6.3515625 -9.2734375 5.5546875 C-8.29924391 0.282581 -4.77961398 0.015338 0 0 Z " fill="#1E579A" transform="translate(511.875,232.6015625)"/>
<path d="M0 0 C4.28635138 2.26924485 7.60201503 4.7574112 10 9 C10.81656649 13.97438976 10.52819475 17.83797156 8.4375 22.4375 C5.08410574 25.9628632 1.92682906 27.81318112 -3.01953125 28.12890625 C-8.44088404 27.78683236 -11.28461096 25.89231232 -15 22 C-17.57866959 18.07593757 -17.29038315 13.97102141 -16.75 9.4453125 C-15.47816469 5.29859944 -12.57491528 3.23741811 -9 1 C-5.89046621 -0.5547669 -3.43733239 -0.28644437 0 0 Z " fill="#F8FAFB" transform="translate(445,544)"/>
<path d="M0 0 C3.51575913 2.8126073 5.36112739 4.82900144 6.19921875 9.32421875 C6.54786294 13.88758384 6.00473195 16.61957822 3.0625 20.1875 C-0.13457716 23.6025597 -2.89406537 25.10628504 -7.5625 25.625 C-13.14264669 25.04774345 -15.91554539 22.68931705 -19.5625 18.5625 C-21.65806606 14.29076919 -22.03213115 10.92474074 -21.1875 6.25 C-19.1824912 2.4473971 -17.76063738 0.63209159 -14.1875 -1.75 C-8.8565169 -3.33488687 -4.85050504 -2.66302238 0 0 Z " fill="#F8FAFB" transform="translate(612.1875,546.75)"/>
<path d="M0 0 C0.495 1.485 0.495 1.485 1 3 C0.20335937 3.31453125 -0.59328125 3.6290625 -1.4140625 3.953125 C-12.60301774 8.47226507 -18.69313043 12.9145049 -24.9375 23.1875 C-26.17776642 26.47055818 -26.43618184 27.78971117 -25 31 C-20.26522209 34.72230968 -15.40660086 36.39138322 -9.6875 38.125 C-8.06429188 38.6207331 -6.44306126 39.12300389 -4.82421875 39.6328125 C-4.11354248 39.84824707 -3.40286621 40.06368164 -2.6706543 40.28564453 C-1 41 -1 41 0 43 C-8.00194313 47.00097157 -19.89413291 43.01447585 -28 41 C-28 43.64 -28 46.28 -28 49 C-29.32 49 -30.64 49 -32 49 C-35.42618905 38.72143285 -33.12360399 24.73555905 -28.67578125 15.14453125 C-22.02936532 3.3344956 -13.40605142 -0.65454501 0 0 Z " fill="#FCF5ED" transform="translate(600,234)"/>
<path d="M0 0 C3.8026029 2.0050088 5.61790841 3.42686262 8 7 C8.5454104 10.06578057 8.53808365 12.9329232 8 16 C5.47031526 19.28175318 3.92268669 20.69243777 0 22 C-4.10100506 22.494097 -8.2232095 22.95235971 -11.953125 20.953125 C-14.09262418 19.18751888 -15.7537717 17.49245659 -17 15 C-17.57791538 7.9494324 -17.57791538 7.9494324 -15.25 4.125 C-10.6347278 -0.23386819 -6.17169204 -0.88778239 0 0 Z " fill="#EC701D" transform="translate(360,657)"/>
<path d="M0 0 C3.04256512 2.05196252 4.27398581 3.43577165 5.6875 6.8125 C6.2806368 10.79498997 5.86174115 12.48890929 3.9375 16.0625 C1.1811572 19.43136342 -0.61882044 20.59542632 -4.93359375 21.1484375 C-12.57594329 21.25443403 -12.57594329 21.25443403 -16.4375 18.9375 C-19.59842501 15.35511833 -19.64986429 12.70936938 -19.59765625 8.0703125 C-19.17183373 4.69873144 -17.77772826 3.07229257 -15.3125 0.8125 C-10.76581171 -2.59751622 -5.02793951 -1.80246888 0 0 Z " fill="#EB741C" transform="translate(489.3125,658.1875)"/>
<path d="M0 0 C1.14984375 -0.00386719 2.2996875 -0.00773438 3.484375 -0.01171875 C4.68578125 -0.00011719 5.8871875 0.01148438 7.125 0.0234375 C8.32640625 0.01183594 9.5278125 0.00023437 10.765625 -0.01171875 C12.49039063 -0.00591797 12.49039063 -0.00591797 14.25 0 C15.83167969 0.00507568 15.83167969 0.00507568 17.4453125 0.01025391 C20.125 0.3984375 20.125 0.3984375 21.96948242 1.78637695 C23.50747523 3.93202803 23.49357166 5.34282236 23.4375 7.9609375 C23.43363281 8.74597656 23.42976562 9.53101563 23.42578125 10.33984375 C23.125 12.3984375 23.125 12.3984375 21.125 14.3984375 C18.23583984 14.62548828 18.23583984 14.62548828 14.5859375 14.59375 C12.63300781 14.58408203 12.63300781 14.58408203 10.640625 14.57421875 C9.26041405 14.55750679 7.88020571 14.54057689 6.5 14.5234375 C5.11198548 14.51340756 3.72396411 14.50428173 2.3359375 14.49609375 C-1.06788026 14.47245613 -4.47135506 14.43950617 -7.875 14.3984375 C-9.03843227 12.07157297 -9.07395988 10.55122337 -9.125 7.9609375 C-9.16367187 6.78724609 -9.16367187 6.78724609 -9.203125 5.58984375 C-8.40539589 0.26215288 -4.74560119 0.01522885 0 0 Z " fill="#4C3172" transform="translate(511.875,232.6015625)"/>
<path d="M0 0 C1.22589844 0.01353516 1.22589844 0.01353516 2.4765625 0.02734375 C3.41628906 0.04474609 3.41628906 0.04474609 4.375 0.0625 C5.035 1.3825 5.695 2.7025 6.375 4.0625 C5.78332031 4.50980469 5.19164062 4.95710938 4.58203125 5.41796875 C1.07194647 8.10349854 -2.25309537 10.67329748 -5.3125 13.875 C-7.95860403 16.37807138 -10.17454142 17.04304633 -13.625 18.0625 C-13.955 18.7225 -14.285 19.3825 -14.625 20.0625 C-13.7278125 20.1553125 -13.7278125 20.1553125 -12.8125 20.25 C-10.625 21.0625 -10.625 21.0625 -9.375 23.1875 C-7.20511994 26.75230295 -4.48523293 28.89859901 -1.26953125 31.51171875 C-0.72683594 32.02347656 -0.18414063 32.53523438 0.375 33.0625 C0.375 33.7225 0.375 34.3825 0.375 35.0625 C-0.3984375 34.629375 -0.3984375 34.629375 -1.1875 34.1875 C-6.16595755 31.88975036 -11.1256989 30.43757942 -16.625 31.0625 C-18.625 32.0625 -18.625 32.0625 -19.625 34.0625 C-20.37744501 36.8900989 -20.37744501 36.8900989 -19.625 40.0625 C-18.22586854 42.02378249 -16.71403252 43.72271478 -15.03515625 45.44921875 C-13.625 47.0625 -13.625 47.0625 -12.625 50.0625 C-14.11 50.5575 -14.11 50.5575 -15.625 51.0625 C-17.16698287 49.37323222 -18.68298748 47.66022426 -20.1875 45.9375 C-21.03441406 44.98617187 -21.88132812 44.03484375 -22.75390625 43.0546875 C-24.625 40.0625 -24.625 40.0625 -24.4921875 36.8828125 C-23.5202841 33.72193748 -22.15142455 30.99323513 -20.625 28.0625 C-20.295 27.051875 -19.965 26.04125 -19.625 25 C-18.61393005 22.02998202 -17.23326882 19.74294803 -15.625 17.0625 C-14.91356912 15.07798229 -14.23508664 13.08047888 -13.625 11.0625 C-12.965 11.0625 -12.305 11.0625 -11.625 11.0625 C-11.5425 10.340625 -11.46 9.61875 -11.375 8.875 C-10.46843384 5.47537691 -8.98605545 3.63819685 -6.625 1.0625 C-4.21954362 -0.14022819 -2.67503047 -0.03821472 0 0 Z " fill="#F67C25" transform="translate(645.625,292.9375)"/>
<path d="M0 0 C0.93134766 0.01804687 1.86269531 0.03609375 2.82226562 0.0546875 C5.11174197 0.10165112 7.39908184 0.16730525 9.6875 0.25 C9.80573816 5.2869456 9.84504957 8.1902934 6.6875 12.25 C2.27751422 16.23321296 -2.35068996 16.62420365 -8.1171875 16.51953125 C-10.3125 16.25 -10.3125 16.25 -13.375 14.75 C-15.71541038 11.73011564 -15.90389361 9.97064723 -15.9765625 6.25 C-13.53880005 -1.09196691 -6.3343465 -0.23278164 0 0 Z " fill="#F9FBF8" transform="translate(666.3125,726.75)"/>
<path d="M0 0 C-0.99 0.495 -0.99 0.495 -2 1 C-2 1.99 -2 2.98 -2 4 C1.3 3.67 4.6 3.34 8 3 C8 6.96 8 10.92 8 15 C-0.91 15 -9.82 15 -19 15 C-19.33 11.7 -19.66 8.4 -20 5 C-14.72 5 -9.44 5 -4 5 C-4 3.68 -4 2.36 -4 1 C-5.65 1 -7.3 1 -9 1 C-5.64919071 -1.10976881 -3.77897651 -1.0497157 0 0 Z " fill="#1D3B7C" transform="translate(536,339)"/>
<path d="M0 0 C-0.64505596 3.48330216 -1.98217268 6.09432866 -4 9 C-4.66 9 -5.32 9 -6 9 C-6 9.66 -6 10.32 -6 11 C-7.74552473 11.84266711 -9.4966208 12.67380038 -11.25 13.5 C-12.22453125 13.9640625 -13.1990625 14.428125 -14.203125 14.90625 C-17 16 -17 16 -21 16 C-21.33 16.66 -21.66 17.32 -22 18 C-23.60299483 13.79213858 -24.10043342 10.48184122 -24 6 C-20.75274421 4.99093539 -17.50178926 3.99434878 -14.25 3 C-13.32960938 2.71382813 -12.40921875 2.42765625 -11.4609375 2.1328125 C-10.57148437 1.86210937 -9.68203125 1.59140625 -8.765625 1.3125 C-7.94868164 1.06113281 -7.13173828 0.80976563 -6.29003906 0.55078125 C-4 0 -4 0 0 0 Z " fill="#253A87" transform="translate(531,303)"/>
<path d="M0 0 C-5.03329101 1.980863 -9.53306383 2.39512018 -14.86328125 2.59765625 C-15.6958696 2.63684677 -16.52845795 2.67603729 -17.38627625 2.71641541 C-20.02805873 2.83984029 -22.6701482 2.95199071 -25.3125 3.0625 C-27.9726071 3.17792729 -30.63253595 3.29582319 -33.2922821 3.41929626 C-34.94359841 3.49556557 -36.59514856 3.56695393 -38.24690247 3.6330719 C-41.92931651 3.4658684 -41.92931651 3.4658684 -45 5 C-45.28745811 6.93620342 -45.51574786 8.88125418 -45.71875 10.828125 C-45.84636719 12.02050781 -45.97398437 13.21289062 -46.10546875 14.44140625 C-46.23566406 15.69824219 -46.36585938 16.95507812 -46.5 18.25 C-46.75839995 20.71375402 -47.01874336 23.17730516 -47.28125 25.640625 C-47.39533203 26.73922852 -47.50941406 27.83783203 -47.62695312 28.96972656 C-47.9615141 31.68737762 -48.42104673 34.32513648 -49 37 C-47.65035156 36.98259766 -47.65035156 36.98259766 -46.2734375 36.96484375 C-34.49196914 36.8822082 -22.76400456 37.38837587 -11 38 C-11 38.33 -11 38.66 -11 39 C-24.2 39 -37.4 39 -51 39 C-49.875 25.5 -49.875 25.5 -49.24609375 20.359375 C-49.11396484 19.27011719 -48.98183594 18.18085938 -48.84570312 17.05859375 C-48.71099609 15.96675781 -48.57628906 14.87492187 -48.4375 13.75 C-48.29892578 12.61175781 -48.16035156 11.47351563 -48.01757812 10.30078125 C-47.68040073 7.53360122 -47.34118213 4.76668861 -47 2 C-37.04717939 1.09579595 -27.10326743 0.70338553 -17.11572266 0.39282227 C-16.02694824 0.35600342 -14.93817383 0.31918457 -13.81640625 0.28125 C-12.84131104 0.25095703 -11.86621582 0.22066406 -10.86157227 0.18945312 C-7.92333846 0.04804797 -7.92333846 0.04804797 -4.76147461 -0.58007812 C-2 -1 -2 -1 0 0 Z " fill="#71AB32" transform="translate(643,418)"/>
<path d="M0 0 C0.66 0.33 1.32 0.66 2 1 C0.515 3.475 0.515 3.475 -1 6 C-0.29034088 5.99777939 0.41931824 5.99555878 1.15048218 5.99327087 C7.83098552 5.97325256 14.51148053 5.95801798 21.19200706 5.94818783 C24.62671562 5.94296421 28.06139943 5.93587599 31.49609375 5.92456055 C35.44270535 5.91163965 39.38930684 5.90676748 43.3359375 5.90234375 C44.57242035 5.89718246 45.8089032 5.89202118 47.08285522 5.88670349 C48.22388702 5.88662796 49.36491882 5.88655243 50.54052734 5.88647461 C52.05276382 5.88314369 52.05276382 5.88314369 53.59555054 5.87974548 C56 6 56 6 58 7 C58 7.66 58 8.32 58 9 C37.54 9 17.08 9 -4 9 C-3.10429689 4.52148447 -2.74999027 3.22824944 0 0 Z " fill="#D63A2E" transform="translate(597,344)"/>
<path d="M0 0 C1.22589844 0.01353516 1.22589844 0.01353516 2.4765625 0.02734375 C3.41628906 0.04474609 3.41628906 0.04474609 4.375 0.0625 C5.035 1.3825 5.695 2.7025 6.375 4.0625 C4.96180023 5.19185196 3.54428595 6.31580626 2.125 7.4375 C1.33609375 8.06398438 0.5471875 8.69046875 -0.265625 9.3359375 C-2.36393868 10.87145844 -4.20016606 12.13298032 -6.625 13.0625 C-9.375 12.1875 -9.375 12.1875 -11.625 11.0625 C-11.12197411 6.66102343 -9.60054199 4.30854581 -6.625 1.0625 C-4.21954362 -0.14022819 -2.67503047 -0.03821472 0 0 Z " fill="#FEF1DC" transform="translate(645.625,292.9375)"/>
<path d="M0 0 C0.99 1.32 1.98 2.64 3 4 C1.599221 7.16576054 -0.09220966 9.28099465 -2.5 11.75 C-6.0825401 15.71239362 -7.15907438 18.76757394 -8 24 C-11.08784385 20.91215615 -11.63133361 17.27942159 -12 13 C-10.03447466 6.61204263 -5.3812932 3.5875288 0 0 Z " fill="#5FA8CF" transform="translate(509,268)"/>
<path d="M0 0 C3.3 0 6.6 0 10 0 C10 0.33 10 0.66 10 1 C7.69 1.66 5.38 2.32 3 3 C2.67 13.23 2.34 23.46 2 34 C6.62 34 11.24 34 16 34 C16.66 34.66 17.32 35.32 18 36 C12.06 36 6.12 36 0 36 C0 24.12 0 12.24 0 0 Z " fill="#A4A733" transform="translate(535,420)"/>
<path d="M0 0 C1.98 0 3.96 0 6 0 C6.33 0.99 6.66 1.98 7 3 C5 6 5 6 2.4375 6.5625 C1.633125 6.706875 0.82875 6.85125 0 7 C-0.33 7.66 -0.66 8.32 -1 9 C-0.01 9.33 0.98 9.66 2 10 C1.67 12.64 1.34 15.28 1 18 C-1.31 17.67 -3.62 17.34 -6 17 C-6.57412662 12.11992372 -4.72382179 9.92550787 -2 6 C-0.75675853 2.7750792 -0.75675853 2.7750792 0 0 Z " fill="#FDF1DD" transform="translate(632,304)"/>
<path d="M0 0 C15.18 0 30.36 0 46 0 C46 11.88 46 23.76 46 36 C45.67 36 45.34 36 45 36 C45 24.45 45 12.9 45 1 C39.19743979 1.1197192 33.39509057 1.24228919 27.59277344 1.37231445 C25.61787538 1.41569203 23.64293913 1.457365 21.66796875 1.49731445 C18.8332161 1.55494873 15.99865622 1.6186627 13.1640625 1.68359375 C11.83430893 1.70866249 11.83430893 1.70866249 10.47769165 1.73423767 C6.10074845 1.71085211 6.10074845 1.71085211 2 3 C1.34444881 5.52733235 1.34444881 5.52733235 1 8 C0.67 8 0.34 8 0 8 C0 5.36 0 2.72 0 0 Z " fill="#D0AB43" transform="translate(474,420)"/>
<path d="M0 0 C0.33 0 0.66 0 1 0 C1.06058594 0.95261719 1.12117187 1.90523438 1.18359375 2.88671875 C1.26738281 4.14097656 1.35117187 5.39523437 1.4375 6.6875 C1.51871094 7.92886719 1.59992187 9.17023438 1.68359375 10.44921875 C1.95890835 14.26387858 1.95890835 14.26387858 3 19 C10.59 19 18.18 19 26 19 C26 19.99 26 20.98 26 22 C17.42 22 8.84 22 0 22 C0 14.74 0 7.48 0 0 Z " fill="#C74E33" transform="translate(555,332)"/>
<path d="M0 0 C5.57333333 1.77333333 5.57333333 1.77333333 8 3.0625 C10.60844196 4.28520717 13.16001412 4.6127292 16 5 C15.67 5.99 15.34 6.98 15 8 C8.48208608 8.3540919 3.82478551 8.03901852 -2 5 C-1.125 1.125 -1.125 1.125 0 0 Z " fill="#FAEFE9" transform="translate(567,312)"/>
<path d="M0 0 C0 14.19 0 28.38 0 43 C-0.33 43 -0.66 43 -1 43 C-1.17068864 38.60431345 -1.33579049 34.20843299 -1.5 29.8125 C-1.54769531 28.58595703 -1.59539063 27.35941406 -1.64453125 26.09570312 C-1.94138594 18.05942249 -2.0608504 10.04154898 -2 2 C-3.65 2.66 -5.3 3.32 -7 4 C-6.67 3.01 -6.34 2.02 -6 1 C-3 0 -3 0 0 0 Z " fill="#354C83" transform="translate(545,287)"/>
<path d="M0 0 C0.99 0.33 1.98 0.66 3 1 C3.1799928 6.21979128 2.97094808 10.07262981 1 15 C0.01 15 -0.98 15 -2 15 C-2.05386629 12.87527424 -2.09273071 10.75016348 -2.125 8.625 C-2.14820313 7.44164062 -2.17140625 6.25828125 -2.1953125 5.0390625 C-2 2 -2 2 0 0 Z " fill="#FCF1DF" transform="translate(569,292)"/>
<path d="M0 0 C0.53625 0.680625 1.0725 1.36125 1.625 2.0625 C3.91890101 4.89969336 6.29989751 7.63178404 8.73046875 10.3515625 C10 12 10 12 11 15 C10.01 15.33 9.02 15.66 8 16 C6.46099109 14.28699008 4.94428131 12.55392512 3.4375 10.8125 C2.16712891 9.36810547 2.16712891 9.36810547 0.87109375 7.89453125 C-1 5 -1 5 -0.77734375 2.13671875 C-0.52082031 1.43160156 -0.26429688 0.72648437 0 0 Z " fill="#FBE7DD" transform="translate(622,328)"/>
<path d="M0 0 C2.4375 0.1875 2.4375 0.1875 3.4375 1.1875 C3.625 3.625 3.625 3.625 3.4375 6.1875 C1.4375 8.1875 1.4375 8.1875 -1.125 8.375 C-3.5625 8.1875 -3.5625 8.1875 -4.5625 7.1875 C-4.75 4.75 -4.75 4.75 -4.5625 2.1875 C-2.5625 0.1875 -2.5625 0.1875 0 0 Z " fill="#D12B18" transform="translate(460.5625,285.8125)"/>
<path d="M0 0 C2.475 0.99 2.475 0.99 5 2 C5 3.32 5 4.64 5 6 C8.3 6.99 11.6 7.98 15 9 C10.87585243 10.03103689 10.0158858 9.94701684 6.25 8.5625 C5.45078125 8.27503906 4.6515625 7.98757813 3.828125 7.69140625 C2.92320312 7.34916016 2.92320312 7.34916016 2 7 C1.34 8.32 0.68 9.64 0 11 C0 7.37 0 3.74 0 0 Z " fill="#E34B18" transform="translate(386,321)"/>
<path d="M0 0 C1.98 0 3.96 0 6 0 C6.33 0.99 6.66 1.98 7 3 C4.42595029 6.86107457 2.38979741 6.94319692 -2 8 C-1.34 5.36 -0.68 2.72 0 0 Z " fill="#FCC179" transform="translate(632,304)"/>
<path d="M0 0 C5.61 0 11.22 0 17 0 C17 1.32 17 2.64 17 4 C14.36 4 11.72 4 9 4 C8.67 3.34 8.34 2.68 8 2 C6.10466658 1.53476937 6.10466658 1.53476937 3.9375 1.375 C2.638125 1.25125 1.33875 1.1275 0 1 C0 0.67 0 0.34 0 0 Z " fill="#DDE6F2" transform="translate(515,340)"/>
<path d="M0 0 C10.56 0 21.12 0 32 0 C32 0.33 32 0.66 32 1 C22.76 1 13.52 1 4 1 C3.67 1.99 3.34 2.98 3 4 C2.01 2.68 1.02 1.36 0 0 Z " fill="#4070AD" transform="translate(479,525)"/>
<path d="M0 0 C-1 2 -1 2 -3.8359375 3.10546875 C-5.00382813 3.46253906 -6.17171875 3.81960938 -7.375 4.1875 C-8.53773438 4.55230469 -9.70046875 4.91710937 -10.8984375 5.29296875 C-14 6 -14 6 -17 5 C-6.81093394 -2.07289294 -6.81093394 -2.07289294 0 0 Z " fill="#2166AB" transform="translate(532,301)"/>
<path d="M0 0 C0 0.99 0 1.98 0 3 C-3.21451269 4.60725635 -6.43612536 4.05748185 -10 4 C-10 3.01 -10 2.02 -10 1 C-6.78548731 -0.60725635 -3.56387464 -0.05748185 0 0 Z " fill="#CFD8EA" transform="translate(544,339)"/>
<path d="M0 0 C1.32 0 2.64 0 4 0 C4 2.64 4 5.28 4 8 C2.68 8 1.36 8 0 8 C-1.125 2.25 -1.125 2.25 0 0 Z " fill="#F8C98A" transform="translate(568,275)"/>
<path d="M0 0 C2.54270448 2.54270448 3.28819571 4.95366212 4.5625 8.3125 C4.99691406 9.44300781 5.43132812 10.57351563 5.87890625 11.73828125 C6.83087096 14.50793466 7.51877933 17.11808295 8 20 C4.62521552 17.3080898 3.69844737 13.99552395 2.3125 10 C1.87550781 8.7625 1.43851562 7.525 0.98828125 6.25 C0 3 0 3 0 0 Z " fill="#F6961D" transform="translate(361,395)"/>
<path d="M0 0 C0.66 0.33 1.32 0.66 2 1 C1.525625 1.598125 1.05125 2.19625 0.5625 2.8125 C-1.68630502 7.40006225 -1.743534 11.95027297 -2 17 C-2.33 17 -2.66 17 -3 17 C-4.11623182 12.53507272 -4.36309868 8.57504331 -4 4 C-2 1.5 -2 1.5 0 0 Z " fill="#B4C523" transform="translate(661,256)"/>
<path d="M0 0 C4.95 0 9.9 0 15 0 C15 3.3 15 6.6 15 10 C13 7 13 7 12 2 C8.04 1.67 4.08 1.34 0 1 C0 0.67 0 0.34 0 0 Z " fill="#85AF2F" transform="translate(565,420)"/>
<path d="M0 0 C2.97 0 5.94 0 9 0 C9.33 0.99 9.66 1.98 10 3 C6.37 3 2.74 3 -1 3 C-0.67 2.01 -0.34 1.02 0 0 Z " fill="#F4DCCF" transform="translate(566,329)"/>
<path d="M0 0 C-1.44781793 3.44428265 -3.27694609 5.36130962 -6.125 7.75 C-7.21167969 8.67039063 -7.21167969 8.67039063 -8.3203125 9.609375 C-8.87460937 10.06828125 -9.42890625 10.5271875 -10 11 C-10.66 10.67 -11.32 10.34 -12 10 C-10.90033225 8.70450101 -9.79508199 7.41373929 -8.6875 6.125 C-8.07261719 5.40570313 -7.45773437 4.68640625 -6.82421875 3.9453125 C-3.12449799 0 -3.12449799 0 0 0 Z " fill="#E56323" transform="translate(418,245)"/>
<path d="M0 0 C0.99 1.32 1.98 2.64 3 4 C1.50902342 7.7952131 -0.75700849 9.61042731 -4 12 C-3.690625 11.4225 -3.38125 10.845 -3.0625 10.25 C-2.0549144 8.11628933 -1.31180128 6.3385096 -1 4 C-1.66 3.34 -2.32 2.68 -3 2 C-2.01 1.34 -1.02 0.68 0 0 Z " fill="#4194C2" transform="translate(509,268)"/>
<path d="M0 0 C0.99 0.33 1.98 0.66 3 1 C3 3.64 3 6.28 3 9 C2.54625 8.505 2.0925 8.01 1.625 7.5 C0.12364481 5.77390663 0.12364481 5.77390663 -2 6 C-1.125 1.125 -1.125 1.125 0 0 Z " fill="#FBE5C8" transform="translate(569,292)"/>
<path d="M0 0 C0.66 0.33 1.32 0.66 2 1 C1.36191406 1.60328125 0.72382813 2.2065625 0.06640625 2.828125 C-0.75988281 3.62734375 -1.58617187 4.4265625 -2.4375 5.25 C-3.26121094 6.03890625 -4.08492188 6.8278125 -4.93359375 7.640625 C-6.91885207 9.90734717 -7.6300359 11.0671937 -8 14 C-8.8125 11.8125 -8.8125 11.8125 -9 9 C-6.8125 6.4375 -6.8125 6.4375 -4 4 C-3.236875 3.236875 -2.47375 2.47375 -1.6875 1.6875 C-1.130625 1.130625 -0.57375 0.57375 0 0 Z " fill="#387AB2" transform="translate(503,264)"/>
<path d="M0 0 C-0.99 0.495 -0.99 0.495 -2 1 C-2 1.99 -2 2.98 -2 4 C-0.35 4 1.3 4 3 4 C3 4.33 3 4.66 3 5 C0.69 5 -1.62 5 -4 5 C-4 3.68 -4 2.36 -4 1 C-5.65 1 -7.3 1 -9 1 C-5.64919071 -1.10976881 -3.77897651 -1.0497157 0 0 Z " fill="#647EB2" transform="translate(536,339)"/>
<path d="M0 0 C0.5775 0.226875 1.155 0.45375 1.75 0.6875 C-1.50179812 2.90463508 -4.6713696 5.03582443 -8.25 6.6875 C-6.65594781 2.8352072 -4.57967475 -0.63606594 0 0 Z " fill="#F19527" transform="translate(391.25,291.3125)"/>
<path d="M0 0 C3.91841827 1.30613942 6.32640809 2.83129848 9 6 C9 6.66 9 7.32 9 8 C4.7257442 6.4169423 2.73468206 3.49431596 0 0 Z " fill="#FBE6CE" transform="translate(637,320)"/>
<path d="M0 0 C-3 2 -3 2 -5.1875 1.625 C-5.785625 1.41875 -6.38375 1.2125 -7 1 C-7 1.66 -7 2.32 -7 3 C-8.32 3.33 -9.64 3.66 -11 4 C-11 3.01 -11 2.02 -11 1 C-3.57142857 -1.42857143 -3.57142857 -1.42857143 0 0 Z " fill="#F2962A" transform="translate(421,286)"/>
<path d="M0 0 C0.66 0.33 1.32 0.66 2 1 C1.01 1.66 0.02 2.32 -1 3 C-0.67 2.01 -0.34 1.02 0 0 Z M-7 4 C-5.35 4 -3.7 4 -2 4 C-3.32 5.32 -4.64 6.64 -6 8 C-6.66 7.67 -7.32 7.34 -8 7 C-7.67 6.01 -7.34 5.02 -7 4 Z " fill="#F38F27" transform="translate(639,306)"/>
<path d="M0 0 C1.231394 3.69418201 0.64432764 6.2056261 0 10 C-0.99 8.68 -1.98 7.36 -3 6 C-2.01 4.02 -1.02 2.04 0 0 Z " fill="#F88533" transform="translate(625,322)"/>
<path d="M0 0 C0.125 2.875 0.125 2.875 0 6 C-0.66 6.66 -1.32 7.32 -2 8 C-2.33 5.69 -2.66 3.38 -3 1 C-1 0 -1 0 0 0 Z " fill="#539CC6" transform="translate(502,284)"/>
<path d="M0 0 C0.33 1.32 0.66 2.64 1 4 C2.32 4 3.64 4 5 4 C5.33 3.34 5.66 2.68 6 2 C6.33 3.32 6.66 4.64 7 6 C4.69 5.67 2.38 5.34 0 5 C0 3.35 0 1.7 0 0 Z " fill="#F9CCA1" transform="translate(626,316)"/>
<path d="M0 0 C2.31 1.98 4.62 3.96 7 6 C6.67 6.66 6.34 7.32 6 8 C1.125 3.375 1.125 3.375 0 0 Z " fill="#F8C190" transform="translate(651,313)"/>
<path d="M0 0 C0.66 1.32 1.32 2.64 2 4 C0.02 4.33 -1.96 4.66 -4 5 C-3 2 -3 2 0 0 Z " fill="#FEF7EA" transform="translate(631,315)"/>
<path d="M0 0 C0.33 0.99 0.66 1.98 1 3 C2.65 2.34 4.3 1.68 6 1 C6 1.99 6 2.98 6 4 C3.69 4.66 1.38 5.32 -1 6 C-0.67 4.02 -0.34 2.04 0 0 Z " fill="#F8AA52" transform="translate(631,306)"/>
<path d="M0 0 C2.3125 0.8125 2.3125 0.8125 4 2 C-0.43076923 4.09230769 -0.43076923 4.09230769 -3.3125 3.625 C-3.869375 3.41875 -4.42625 3.2125 -5 3 C-2.75 1.375 -2.75 1.375 0 0 Z " fill="#1C57A0" transform="translate(528,300)"/>
</svg>
